<svg width="53" height="53" viewBox="0 0 53 53" fill="none" xmlns="http://www.w3.org/2000/svg">
<path d="M9.04313 44.2881L15.7741 42.0422L16.9865 42.6319C19.7922 43.9933 22.9987 44.7187 26.5 44.7187C38.0805 44.7187 46.375 36.4441 46.375 26.5C46.375 16.5194 38.1401 8.28125 26.5 8.28125C14.8599 8.28125 6.625 16.5194 6.625 26.5C6.64457 30.3194 7.90218 34.0295 10.2091 37.0735L11.3288 38.5641L9.04313 44.2848V44.2881ZM6.70119 48.5612C6.40143 48.6617 6.07919 48.6742 5.77253 48.5974C5.46587 48.5206 5.1876 48.3576 4.9706 48.1277C4.75359 47.8978 4.60691 47.6106 4.54789 47.3C4.48886 46.9895 4.51996 46.6685 4.6375 46.375L7.56244 39.0643C4.8236 35.4464 3.33231 31.0376 3.3125 26.5C3.3125 15.5224 12.1966 4.96875 26.5 4.96875C40.8034 4.96875 49.6875 15.5224 49.6875 26.5C49.6875 37.4776 40.7106 48.0312 26.5 48.0312C22.3759 48.0312 18.6924 47.1435 15.5422 45.6131L6.69788 48.5612H6.70119Z" fill="white"/>
</svg>
