<svg width="15" height="15" viewBox="0 0 15 15" fill="none" xmlns="http://www.w3.org/2000/svg">
<path d="M10.1827 10.2131C9.64315 9.98807 8.36205 9.54603 7.57408 9.31353C7.50705 9.29244 7.49627 9.28916 7.49627 9.00932C7.49627 8.77822 7.59143 8.54572 7.68377 8.34885C7.78408 8.1351 7.90314 7.7751 7.9458 7.4526C8.06533 7.31385 8.22799 7.0401 8.33299 6.51838C8.42486 6.05854 8.38174 5.89119 8.3208 5.73416C8.31471 5.71775 8.30768 5.70135 8.30299 5.68494C8.28002 5.57713 8.31143 5.01697 8.39064 4.58244C8.44502 4.28432 8.37658 3.6501 7.96596 3.12557C7.70674 2.79416 7.2108 2.38682 6.30471 2.33057L5.80783 2.33104C4.91721 2.38729 4.42033 2.79416 4.16111 3.12557C3.75049 3.6501 3.68252 4.28432 3.73689 4.58244C3.81611 5.01744 3.84752 5.5776 3.82502 5.68307C3.82033 5.70135 3.8133 5.71775 3.80674 5.73463C3.74627 5.89166 3.70314 6.059 3.79502 6.51885C3.89908 7.04057 4.06221 7.31432 4.18221 7.45307C4.22439 7.77557 4.34346 8.13557 4.44424 8.34932C4.51783 8.50588 4.55252 8.71869 4.55252 9.0201C4.55252 9.29994 4.54174 9.30322 4.47893 9.32291C3.66377 9.56338 2.36721 10.0321 1.88346 10.244C1.50002 10.4085 1.40674 10.7034 1.40674 10.9696C1.40674 11.2359 1.40674 12.0248 1.40674 12.1992C1.40674 12.3731 1.50986 12.6707 1.88346 12.6707C2.1708 12.6707 4.47002 12.6707 5.51439 12.6707C5.82752 12.6707 6.02908 12.6707 6.02908 12.6707H6.11908C6.11908 12.6707 6.32393 12.6707 6.64174 12.6707C7.69033 12.6707 9.98627 12.6707 10.2731 12.6707C10.6463 12.6707 10.7499 12.3735 10.7499 12.1992C10.7499 12.0248 10.7499 11.2359 10.7499 10.9696C10.7499 10.7034 10.5661 10.3781 10.1831 10.2135L10.1827 10.2131ZM10.2544 12.1781H1.89799V10.9692C1.89799 10.8201 1.94158 10.7535 2.08033 10.694C2.5458 10.4901 3.83393 10.0256 4.62705 9.79119C5.04377 9.659 5.04377 9.28963 5.04377 9.01963C5.04377 8.64416 4.99502 8.36479 4.88861 8.13932C4.80799 7.96775 4.70486 7.66025 4.66924 7.38885L4.65002 7.2426L4.55346 7.13104C4.50049 7.0701 4.3683 6.87885 4.27689 6.42182C4.20518 6.06604 4.23705 5.98353 4.26236 5.91744C4.27689 5.88182 4.29002 5.84619 4.30033 5.80635L4.30314 5.79604L4.30502 5.78572C4.35471 5.55369 4.28768 4.86604 4.22018 4.49432C4.18877 4.32322 4.22814 3.8376 4.54877 3.42885C4.74424 3.17854 5.12439 2.87104 5.82424 2.82275L6.28924 2.82229C6.86064 2.86119 7.29471 3.0651 7.57971 3.42885C7.89939 3.8376 7.9383 4.32369 7.90736 4.49525C7.83799 4.87682 7.77283 5.55322 7.82346 5.78807L7.82721 5.80635L7.83236 5.82416C7.83939 5.84947 7.84877 5.87479 7.85814 5.89963L7.86283 5.91182V5.91275C7.89049 5.98447 7.92236 6.06557 7.85111 6.42229C7.75924 6.87885 7.62658 7.07103 7.57361 7.13244L7.47799 7.24354L7.45877 7.38885C7.42268 7.65978 7.31955 7.96869 7.23893 8.14025C7.12314 8.38635 7.00455 8.6826 7.00455 9.01025C7.00455 9.28072 7.00455 9.65104 7.43486 9.78604C8.20408 10.0134 9.47158 10.4498 9.98861 10.6659C10.1846 10.7498 10.2577 10.897 10.2577 10.9701L10.2549 12.179L10.2544 12.1781Z" fill="#313131"/>
<path d="M12.3263 7.01496L13.6116 5.72965L13.2633 5.38184L11.9785 6.66715L10.6931 5.38184L10.3453 5.72965L11.6306 7.01496L10.3453 8.30027L10.6931 8.64809L11.9785 7.36277L13.2638 8.64809L13.6116 8.30027L12.3263 7.01496Z" fill="#E26666"/>
</svg>
