<svg width="100" height="113" viewBox="0 0 100 113" fill="none" xmlns="http://www.w3.org/2000/svg">
<mask id="mask0_2_153" style="mask-type:alpha" maskUnits="userSpaceOnUse" x="0" y="0" width="100" height="113">
<rect width="100" height="112.65" fill="#FF0000"/>
</mask>
<g mask="url(#mask0_2_153)">
<path d="M45.5875 84.4873C42.9875 84.4873 40.55 83.389 38.7625 81.3754C36.975 79.3618 36 76.6159 36 73.6871C36 70.7582 36.975 68.0123 38.7625 65.9987L44.9375 59.0426L48.1875 62.7037L52.7375 57.5781L55.0125 60.1409L50.4625 65.2665L53.0625 68.1954L57.6125 63.0698L59.8875 65.6326L55.3375 70.7582L58.5875 74.4193L52.575 81.3754C50.625 83.2059 48.1875 84.4873 45.5875 84.4873ZM44.9375 64.1681L41.2 68.3784C39.9 69.8429 39.25 71.6734 39.25 73.504C39.25 75.3346 39.9 77.1651 41.2 78.6296C43.6375 81.3754 47.8625 81.3754 50.3 78.6296L54.0375 74.2362L44.9375 64.1681ZM66.0625 65.9987L52.4125 50.622L58.425 43.6659C60.2125 41.6523 62.8125 40.554 65.25 40.554C67.6875 40.554 70.125 41.6523 72.075 43.6659C74.025 45.6795 75 48.4254 75 51.3542C75 54.2831 74.025 57.029 72.2375 59.0426L66.0625 65.9987ZM57.125 50.622L66.0625 60.6901L69.8 56.4798C71.1 55.0154 71.75 53.3679 71.75 51.3542C71.75 49.5237 71.1 47.6931 69.8 46.2287C67.3625 43.4828 63.3 43.4828 60.7 46.2287L57.125 50.622Z" fill="white"/>
</g>
</svg>
