<svg width="53" height="53" viewBox="0 0 53 53" fill="none" xmlns="http://www.w3.org/2000/svg">
<path d="M50.35 12.4347C50.1462 11.8232 49.4327 11.7213 48.9231 12.129L40.6673 20.3847C40.0558 20.9963 39.0365 20.9963 38.425 20.3847L32.6154 14.5751C32.0038 13.9636 32.0038 12.9443 32.6154 12.3328L40.9731 4.07704C41.3808 3.66934 41.1769 2.95588 40.6673 2.65011C39.2404 2.24242 37.7115 2.03857 36.2846 2.03857C27.6212 2.03857 20.6904 9.47896 21.7096 18.3463C21.9135 19.7732 22.2192 20.9963 22.7288 22.2193L3.66923 41.177C1.42693 43.4193 1.42693 47.0886 3.66923 49.229C4.79039 50.3501 6.31923 50.9616 7.74616 50.9616C9.17308 50.9616 10.7019 50.3501 11.8231 49.229L30.7808 30.2713C32.0038 30.7809 33.3288 31.0867 34.6538 31.2905C43.5212 32.3097 50.9615 25.379 50.9615 16.7155C50.9615 15.1867 50.7577 13.7597 50.35 12.4347Z" fill="white"/>
</svg>
