<svg width="53" height="60" viewBox="0 0 53 60" fill="none" xmlns="http://www.w3.org/2000/svg">
<path d="M46.3326 7.5149C44.4113 5.35062 41.6951 4.50481 39.0672 5.25111L17.4256 11.3459C13.7818 12.3659 10.9773 15.5501 10.0718 19.6299L4.66143 44.034C3.99893 46.9943 4.74976 50.0541 6.67101 52.2184C8.12851 53.8354 10.0498 54.731 12.0373 54.731C12.6556 54.731 13.296 54.6564 13.9143 54.4573L35.578 48.3625C39.1997 47.3426 42.0263 44.1832 42.9318 40.0785L48.3422 15.6745C49.0047 12.7142 48.2538 9.65431 46.3326 7.5149ZM26.5018 39.5064C21.776 39.5064 17.9335 35.1778 17.9335 29.8542C17.9335 24.5306 21.776 20.2021 26.5018 20.2021C31.2276 20.2021 35.0701 24.5306 35.0701 29.8542C35.0701 35.1778 31.2276 39.5064 26.5018 39.5064Z" fill="white"/>
</svg>
