<svg width="15" height="15" viewBox="0 0 15 15" fill="none" xmlns="http://www.w3.org/2000/svg">
<path d="M13.2478 2.75166C13.2478 2.06166 12.6881 1.50244 11.9981 1.50244C11.3081 1.50244 10.7484 2.06166 10.7484 2.75166C10.7484 3.35588 11.1778 3.86025 11.7483 3.97604V12.4979H12.2479V3.97604C12.8184 3.86025 13.2478 3.35588 13.2478 2.75166ZM11.9981 3.50166C11.5847 3.50166 11.2486 3.16557 11.2486 2.75213C11.2486 2.33869 11.5847 2.0026 11.9981 2.0026C12.4115 2.0026 12.7476 2.33869 12.7476 2.75213C12.7476 3.16557 12.4115 3.50166 11.9981 3.50166Z" fill="#313131"/>
<path d="M3.25175 11.0238V2.50195H2.75206V11.0238C2.18159 11.1396 1.75269 11.6435 1.75269 12.2482C1.75269 12.9382 2.31237 13.4979 3.00237 13.4979C3.69237 13.4979 4.25206 12.9382 4.25206 12.2482C4.25206 11.6435 3.82269 11.1396 3.25222 11.0238H3.25175ZM3.0019 12.9982C2.58847 12.9982 2.25237 12.6621 2.25237 12.2487C2.25237 11.8352 2.58847 11.4991 3.0019 11.4991C3.41534 11.4991 3.75144 11.8352 3.75144 12.2487C3.75144 12.6621 3.41534 12.9982 3.0019 12.9982Z" fill="#313131"/>
<path d="M7.74984 6.27539V2.50195H7.25015V6.27539C6.67968 6.39117 6.25031 6.89555 6.25031 7.49977C6.25031 8.10398 6.67968 8.60836 7.25015 8.72414V12.4976H7.74984V8.72414C8.32031 8.60836 8.74968 8.10398 8.74968 7.49977C8.74968 6.89555 8.32031 6.39117 7.74984 6.27539ZM7.49999 8.2493C7.08656 8.2493 6.75046 7.9132 6.75046 7.49977C6.75046 7.08633 7.08656 6.75023 7.49999 6.75023C7.91343 6.75023 8.24952 7.08633 8.24952 7.49977C8.24952 7.9132 7.91343 8.2493 7.49999 8.2493Z" fill="#313131"/>
</svg>
