<svg width="53" height="53" viewBox="0 0 53 53" fill="none" xmlns="http://www.w3.org/2000/svg">
<g clip-path="url(#clip0_2_187)">
<path fill-rule="evenodd" clip-rule="evenodd" d="M49.8824 43.0611C47.9868 44.3986 44.6728 46.2785 40.3891 47.4383C39.8685 44.6075 37.8295 42.2661 34.9769 41.39C32.4454 40.6106 29.8671 40.0557 27.2607 39.6878C29.2466 38.0105 30.6184 35.6629 31.0144 32.9755C31.6192 32.9537 32.252 32.9412 32.9754 32.9412C37.5583 32.9661 42.1163 33.6676 46.5278 35.0238C48.5324 35.6411 49.8824 37.4462 49.8824 39.5194V43.0611ZM37.4118 52.414C34.2598 54.6432 28.2958 57.8824 20.2647 57.8824C16.6919 57.8824 9.79876 57.1591 3.11764 52.414V48.8599C3.11764 46.7898 4.47072 44.9816 6.47845 44.3643C10.9616 42.9925 15.5976 42.2973 20.2647 42.2973H20.4985C25.097 42.3191 29.6582 43.0175 34.0634 44.3705C36.065 44.9847 37.4118 46.7898 37.4118 48.8599V52.414H37.4118ZM12.4706 31.3824V28.2647C12.4706 23.9686 15.9655 20.4706 20.2647 20.4706C24.564 20.4706 28.0588 23.9686 28.0588 28.2647V31.3824C28.0588 35.6816 24.564 39.1765 20.2647 39.1765C15.9655 39.1765 12.4706 35.6816 12.4706 31.3824H12.4706ZM32.7353 11.1177C34.8117 11.1177 36.7695 11.9314 38.2442 13.406C39.7157 14.8807 40.5294 16.8354 40.5294 18.9118V22.0294C40.5294 26.3287 37.0345 29.8236 32.7353 29.8236C32.1928 29.8236 31.6753 29.7518 31.1765 29.6458V28.2647C31.1765 23.9468 28.6356 20.2399 24.988 18.4722C25.2186 14.385 28.5888 11.1177 32.7353 11.1177ZM47.4444 32.0433C44.9222 31.2701 42.3501 30.7121 39.722 30.3411C42.1007 28.3396 43.647 25.3778 43.647 22.0295V18.9118C43.647 16.003 42.5122 13.2626 40.4484 11.2018C38.3845 9.13793 35.6472 8 32.7353 8C27.1952 8 22.656 12.1683 21.9638 17.5275C21.4058 17.4371 20.8477 17.3529 20.2647 17.3529C14.2476 17.3529 9.35295 22.2507 9.35295 28.2647V31.3824C9.35295 34.7307 10.8993 37.6925 13.2812 39.6971C10.678 40.0619 8.08717 40.6106 5.565 41.3837C2.23848 42.4064 0 45.4118 0 48.8599V53.9853L0.623523 54.453C8.22124 60.1489 16.1868 61.0001 20.2647 61.0001C29.7673 61.0001 36.651 56.8973 39.9059 54.453L40.5294 53.9854V50.6588C46.1942 49.2621 50.3469 46.6277 52.3765 45.1001L53 44.6324V39.5194C53 36.0682 50.7646 33.0628 47.4444 32.0433Z" fill="white"/>
</g>
<defs>
<clipPath id="clip0_2_187">
<rect width="53" height="53" fill="white"/>
</clipPath>
</defs>
</svg>
