<svg width="15" height="15" viewBox="0 0 15 15" fill="none" xmlns="http://www.w3.org/2000/svg">
<path fill-rule="evenodd" clip-rule="evenodd" d="M7.67476 2.32229C7.56064 2.28905 7.43939 2.28905 7.3252 2.32229C7.29239 2.33186 7.23464 2.3558 7.11182 2.44878C6.9827 2.54657 6.82458 2.68652 6.5782 2.90552L3.30341 5.81642C2.90194 6.17329 2.78813 6.28092 2.70901 6.39992C2.63289 6.51442 2.57619 6.64067 2.54119 6.77361C2.50479 6.91186 2.49998 7.06836 2.49998 7.60555V9.99992C2.49998 10.5909 2.50033 11.0029 2.52232 11.3252C2.54394 11.6421 2.58436 11.8266 2.64271 11.9674C2.83301 12.4269 3.19803 12.7919 3.65745 12.9822C3.79832 13.0405 3.98282 13.081 4.29964 13.1026C4.62208 13.1246 5.03401 13.1249 5.62498 13.1249H9.37501C9.96595 13.1249 10.3779 13.1246 10.7003 13.1026C11.0171 13.081 11.2016 13.0405 11.3425 12.9822C11.802 12.7919 12.167 12.4269 12.3573 11.9674C12.4156 11.8266 12.456 11.6421 12.4776 11.3252C12.4996 11.0029 12.5 10.5909 12.5 9.99992V7.60555C12.5 7.06836 12.4952 6.91186 12.4588 6.77361C12.4238 6.64067 12.3671 6.51442 12.291 6.39992C12.2118 6.28092 12.098 6.17329 11.6966 5.81642L8.42176 2.90552C8.17539 2.68652 8.01726 2.54657 7.88814 2.44878C7.76533 2.3558 7.70758 2.33186 7.67476 2.32229ZM6.9757 1.12215C7.31814 1.02244 7.68183 1.02244 8.02426 1.12215C8.26183 1.19134 8.45883 1.31302 8.64264 1.45219C8.81576 1.58327 9.01076 1.75657 9.23526 1.95614L12.527 4.88217C12.5448 4.89792 12.5622 4.91345 12.5795 4.92879C12.9056 5.2183 13.1518 5.43702 13.332 5.7079C13.4841 5.9369 13.5976 6.18943 13.6676 6.45536C13.7504 6.76992 13.7503 7.0993 13.75 7.5353C13.75 7.55842 13.75 7.5818 13.75 7.60555V10.0221C13.75 10.5857 13.75 11.0404 13.7248 11.4104C13.6988 11.7908 13.6441 12.1272 13.5121 12.4458C13.195 13.2115 12.5866 13.8199 11.8209 14.137C11.5023 14.269 11.1659 14.3237 10.7854 14.3497C10.4154 14.3749 9.96076 14.3749 9.3972 14.3749H5.60278C5.03918 14.3749 4.58456 14.3749 4.21455 14.3497C3.83409 14.3237 3.49766 14.269 3.1791 14.137C2.41339 13.8199 1.80503 13.2115 1.48786 12.4458C1.35591 12.1272 1.30118 11.7908 1.27522 11.4104C1.24998 11.0404 1.24998 10.5857 1.24998 10.0221V7.60555C1.24998 7.5818 1.24997 7.55842 1.24996 7.5353C1.24973 7.0993 1.24956 6.76992 1.33239 6.45536C1.40241 6.18943 1.51581 5.9369 1.66804 5.7079C1.84811 5.43702 2.09442 5.2183 2.42046 4.9288C2.43774 4.91345 2.45523 4.89792 2.47296 4.88217L5.76473 1.95615C5.98923 1.75657 6.18418 1.58327 6.35733 1.45219C6.54114 1.31302 6.73814 1.19134 6.9757 1.12215Z" fill="#313131"/>
</svg>
