<svg width="15" height="15" viewBox="0 0 15 15" fill="none" xmlns="http://www.w3.org/2000/svg">
<path fill-rule="evenodd" clip-rule="evenodd" d="M13.75 10.9375C13.75 12.4908 12.4908 13.75 10.9375 13.75H7.5C6.11931 13.75 5 12.6307 5 11.25V10.625C5 10.2798 5.27981 10 5.625 10C5.97019 10 6.25 10.2798 6.25 10.625V11.25C6.25 11.9404 6.80963 12.5 7.5 12.5H10.9375C11.8004 12.5 12.5 11.8004 12.5 10.9375V4.0625C12.5 3.19956 11.8004 2.5 10.9375 2.5H7.5C6.80963 2.5 6.25 3.05963 6.25 3.75V4.375C6.25 4.72019 5.97019 5 5.625 5C5.27981 5 5 4.72019 5 4.375V3.75C5 2.36931 6.11931 1.25 7.5 1.25H10.9375C12.4908 1.25 13.75 2.50919 13.75 4.0625V10.9375ZM3.56694 9.81694C3.32288 10.061 2.92713 10.061 2.68306 9.81694L0.808064 7.94194C0.564001 7.69788 0.564001 7.30213 0.808064 7.05806L2.68306 5.18306C2.92713 4.939 3.32288 4.939 3.56694 5.18306C3.811 5.42713 3.811 5.82288 3.56694 6.06694L2.75888 6.875H8.125C8.47019 6.875 8.75 7.15481 8.75 7.5C8.75 7.84519 8.47019 8.125 8.125 8.125H2.75888L3.56694 8.93306C3.811 9.17714 3.811 9.57286 3.56694 9.81694Z" fill="#313131"/>
</svg>
