<svg width="53" height="53" viewBox="0 0 53 53" fill="none" xmlns="http://www.w3.org/2000/svg">
<g clip-path="url(#clip0_2_174)">
<path d="M8.07526 8.0752V52.9999H53V8.0752H8.07526ZM48.9615 48.9615H12.1136V12.1135H48.9615V48.9615Z" fill="white"/>
<path d="M14.7168 41.8943H46.3584C46.6747 41.8943 46.9649 41.7208 47.1147 41.4424C47.2646 41.1649 47.2496 40.8265 47.0753 40.5631L37.2564 25.6863C36.8589 25.0838 36.1854 24.7219 35.4631 24.7219C34.7415 24.7235 34.0681 25.0862 33.6715 25.6903L26.7546 36.2164L22.9371 31.8893C22.4939 31.3878 21.8425 31.1205 21.1754 31.1687C20.5075 31.216 19.9002 31.5725 19.5335 32.1315L13.9991 40.5648C13.8257 40.829 13.8115 41.1657 13.9614 41.4433C14.1111 41.7216 14.4014 41.8943 14.7168 41.8943Z" fill="white"/>
<path d="M22.7802 27.8872C25.1846 27.8872 27.1333 25.9387 27.1333 23.5342C27.1333 21.1297 25.1846 19.1812 22.7802 19.1812C20.3757 19.1812 18.4263 21.1297 18.4263 23.5342C18.4263 25.9387 20.3757 27.8872 22.7802 27.8872Z" fill="white"/>
<path d="M44.9247 4.03846V0H0V44.9247H4.03846V40.8864V4.03846H40.8864H44.9247Z" fill="white"/>
</g>
<defs>
<clipPath id="clip0_2_174">
<rect width="53" height="53" fill="white"/>
</clipPath>
</defs>
</svg>
