<svg width="15" height="15" viewBox="0 0 15 15" fill="none" xmlns="http://www.w3.org/2000/svg">
<g clip-path="url(#clip0_8_86)">
<path fill-rule="evenodd" clip-rule="evenodd" d="M6.17647 11.4706C3.25677 11.4706 0.882352 9.09618 0.882352 6.17647C0.882352 3.25677 3.25677 0.882352 6.17647 0.882352C9.09618 0.882352 11.4706 3.25677 11.4706 6.17647C11.4706 9.09618 9.09618 11.4706 6.17647 11.4706ZM10.8388 10.215C11.7794 9.13147 12.3529 7.72059 12.3529 6.17647C12.3529 2.77147 9.58147 0 6.17647 0C2.77147 0 0 2.77147 0 6.17647C0 9.58147 2.77147 12.3529 6.17647 12.3529C7.72059 12.3529 9.13147 11.7794 10.215 10.8388L14.2465 14.8712L14.8712 14.2465L10.8388 10.215Z" fill="#CCCCCC"/>
</g>
<defs>
<clipPath id="clip0_8_86">
<rect width="15" height="15" fill="white"/>
</clipPath>
</defs>
</svg>
